/* XPM */
static char * back_xpm[] = {
"32 32 91 1",
" 	c None",
".	c #13263E",
"+	c #0E2946",
"@	c #173047",
"#	c #18304E",
"$	c #153260",
"%	c #153457",
"&	c #1F3968",
"*	c #183D66",
"=	c #1D415F",
"-	c #2F415F",
";	c #264468",
">	c #1A4772",
",	c #254573",
"'	c #344D78",
")	c #2E4F81",
"!	c #255281",
"~	c #2B518C",
"{	c #30527B",
"]	c #315472",
"^	c #345A90",
"/	c #375C8D",
"(	c #405C82",
"_	c #40607A",
":	c #406697",
"<	c #4B668F",
"[	c #44679F",
"}	c #3A69A9",
"|	c #46698E",
"1	c #4D698A",
"2	c #5E6D7F",
"3	c #4970A1",
"4	c #4672A9",
"5	c #557192",
"6	c #527399",
"7	c #3C79A2",
"8	c #437F95",
"9	c #4E79B1",
"0	c #5C789A",
"a	c #64778E",
"b	c #5A78A5",
"c	c #5A7AA1",
"d	c #577BAE",
"e	c #627E9F",
"f	c #5580B8",
"g	c #5981AD",
"h	c #5F80A7",
"i	c #687F9B",
"j	c #69819D",
"k	c #6B84A7",
"l	c #5E87BE",
"m	c #5A8CA4",
"n	c #6988AF",
"o	c #6A8AA5",
"p	c #6A8BB2",
"q	c #6491C3",
"r	c #6D90C4",
"s	c #818E9E",
"t	c #7393AE",
"u	c #7295CA",
"v	c #7C95B7",
"w	c #6E9CCE",
"x	c #7C9CB8",
"y	c #62A3C0",
"z	c #789BD0",
"A	c #899CB4",
"B	c #55ACC6",
"C	c #66A6D7",
"D	c #7FA1D6",
"E	c #81A2CA",
"F	c #979FA7",
"G	c #70A6D7",
"H	c #85A3BE",
"I	c #89A5C8",
"J	c #86A8DE",
"K	c #99A8B7",
"L	c #92ADC4",
"M	c #83B1E0",
"N	c #8DB0E6",
"O	c #A2AFBF",
"P	c #A9B4BB",
"Q	c #98B5E6",
"R	c #9BB7CE",
"S	c #94BAE9",
"T	c #A3BFD6",
"U	c #B2BEC7",
"V	c #A5C5DC",
"W	c #BEC3C6",
"X	c #C5CACC",
"Y	c #CCCCCC",
"Z	c #B3D3E4",
"  YYYYYYYYYYYYYYYYYYYYYYYYYYYY  ",
" YYYYYYYYYYYYYXvvXYYYYYYYYYYYYY ",
"YYYYYYYYYYYYYYkIEvYYYYYYYYYYYYYY",
"YYYYYYYYYYYYYObZZ9OYYYYYYYYYYYYY",
"YYYYYYYYYYYYW/TVVT}WYYYYYYYYYYYY",
"YYYYYYYYYYYY1HTTTTIdYYYYYYYYYYYY",
"YYYYYYYYYYYs6RRRRRRfAYYYYYYYYYYY",
"YYYYYYYYYYP{LLLLLLLL}UYYYYYYYYYY",
"YYYYYYYYYX{tHHHHHHHHx}XYYYYYYYYY",
"YYYYYYYYYa5xxxxxxxxxxdnYYYYYYYYY",
"YYYYYYYYF;tttttttttttt}KYYYYYYYY",
"YYYYYYYW;jooooooooooook}UYYYYYYY",
"YYYYYYY_1jjjjjejjjjiiiib3YYYYYYY",
"YYYYYYs;0000eeeeeeee0000^vYYYYYY",
"YYYYYP%15500eeeeeeee00555~OYYYYY",
"YYYYX-]1156cchhhhhccc661||^WYYYY",
"YYYY2-(||66cchhhhhhcc66|0i<cYYYY",
"YYYF#((|<66cggggnpnnhc6<'$$)AYYY",
"YYW#;,{)/:33ddddd44[[/^),&$,3WYY",
"YYK8',!/::3499ffff9943::/!,{BUYY",
"YYP_#+++..@dfllllllfd@.+%*,)oXYY",
"YYYYYYYYYY.qlrruurrll@XXYYYYYYYY",
"YYYYYYYYYX.qruuzzzurq@YYYYYYYYYY",
"YYYYYYYYYY+wuzDJJDzuq=YYYYYYYYYY",
"YYYYYYYYYY#wzDJNNJDzw;YYYYYYYYYY",
"YYYYYYYYYY#wzJNQSNJzw>YYYYYYYYYY",
"YYYYYYYYYY%GzJNQSQJzw!YYYYYYYYYY",
"YYYYYYYYYY%wzJNQNNJzw!YYYYYYYYYY",
"YYYYYYYYYX=CGGMMMMGGC7YYYYYYYYYY",
"YYYYYYYYYYm]%%****>>!yYYYYYYYYYY",
" YYYYYYYYYYYYYYYYYYYYYYYYYYYYYY ",
"  YYYYYYYYYYYYYYYYYYYYYYYYYYYY  "};
