/* XPM */
static char * back_xpm[] = {
"32 32 32 1",
" 	c None",
".	c #565755",
"+	c #595B58",
"@	c #626461",
"#	c #666865",
"$	c #6B6D6A",
"%	c #6E706D",
"&	c #737572",
"*	c #797B78",
"=	c #7E807D",
"-	c #828481",
";	c #868885",
">	c #8A8C89",
",	c #939592",
"'	c #9A9C99",
")	c #AAACA9",
"!	c #B3B5B2",
"~	c #B8BAB7",
"{	c #BDBFBC",
"]	c #C5C7C4",
"^	c #C9CBC8",
"/	c #CED0CC",
"(	c #D0D2CF",
"_	c #D3D5D2",
":	c #D7D9D6",
"<	c #DCDEDB",
"[	c #E3E5E1",
"}	c #E7E9E6",
"|	c #EDEFEB",
"1	c #F1F3F0",
"2	c #F8FBF7",
"3	c #FDFFFC",
"                                ",
"                                ",
"                                ",
"                                ",
"                                ",
"                                ",
"                                ",
"                                ",
"               %+          %+   ",
"             ;#*.        -#*.   ",
"            &#]3.       &#]3.   ",
"          =@)2[3.     =@)2[3.   ",
"        ;$;|1/{3.   ;$;|1/{3.   ",
"       &$:2<^]]3.  &$:2<^]]3.   ",
"     -@~2}(///^3.-@~2}(///^3.   ",
"    $,11:_::__/3.,11:_::__/3.   ",
"    $,11<<<<<:_3.,11<<<<<:_3.   ",
"     '#{21[[[<:3.'#{21[[[<:3.   ",
"       =%<21[<:3.  -%<21[<:3.   ",
"         %>12[:3.    %>12[:3.   ",
"          '@!2|3.     '@!2|3.   ",
"            =#/3.       =#/3.   ",
"              %=.         %=.   ",
"                +           +   ",
"                                ",
"                                ",
"                                ",
"                                ",
"                                ",
"                                ",
"                                ",
"                                "};
