/* XPM */
static char * debug_xpm[] = {
"32 32 32 1",
" 	c None",
".	c #262725",
"+	c #2F302E",
"@	c #961511",
"#	c #383937",
"$	c #3F403E",
"%	c #C31E1C",
"&	c #454744",
"*	c #4C4D4B",
"=	c #50524F",
"-	c #5A5C59",
";	c #F93432",
">	c #60615F",
",	c #AE4D4B",
"'	c #2971BB",
")	c #4171A1",
"!	c #6A6B68",
"~	c #777774",
"{	c #838482",
"]	c #6690BD",
"^	c #8F918E",
"/	c #DC8383",
"(	c #9B9D9A",
"_	c #84ABCF",
":	c #AAABA8",
"<	c #EFA4A4",
"[	c #B6B8B5",
"}	c #A0C1E0",
"|	c #B8C4D2",
"1	c #CCCCCC",
"2	c #CEDAE8",
"3	c #E3E5E2",
"  1111111111111111111111111111  ",
" 111111111111111111111111111111 ",
"11111111111111111111111111111111",
"111:((((((((((((((((((((((((:111",
"11:33333333333333333333333333:11",
"1^1111111111111111111111111111^1",
"1{1111111111111111111111111111{1",
"1{1.========================.1{1",
"1{1&!!~::~!!!!!!!!!!!!!!!!!!&1{1",
"1{1&>:2__|:>>(^^^^^{>>>>>>>>&1{1",
"1{1$!2)}2_|!----------------$1{1",
"1{1$(]'}}'_(-~~~~~!!!~!!!>~&+1{1",
"1{[#(]']_'_(*==&&&##########.[{1",
"1{[#-|']}'2=$>-=>=##########.[{1",
"1{[+&^|]_2^$$$$$$$$$$$$$$$$$.[{1",
"1{[+$$=^^=$$$$$$$$$$$$$$$$$$+[{1",
"1{:+$$$$$$$$$$$$$$$$$$$$$$$$+:{1",
"1{:+$&&~{&&&&&&&&&&&&&&&&&&$+:{1",
"1{:+&-:,,:-&&*&&*&*&&&&&&&&&+:{1",
"1{:#&~@%;%>&&{~~{~!~~~{~{!&&#:{1",
"1{(#&>@<<%=&&**&*&&**&&*&&&&#({1",
"1{(#*&,//,&**~!>~~!!~!>~!>**#({1",
"1{($**!@%~***>>!>->>********$({1",
"1{($***~^&***>------=*******$({1",
"1{^&************************&^{1",
"1{^&&&&&&&&&&&&&&&&&&&&&&&&&&^{1",
"1{^((((((((((((((((((((((((((^{1",
"1{{{{{{{{{{{{{{{{{{{{{{{{{{{{{{1",
"11!--------------------------!11",
"11111111111111111111111111111111",
" 111111111111111111111111111111 ",
"  1111111111111111111111111111  "};
