/* XPM */
static char * exit_xpm[] = {
"32 32 64 1",
" 	c None",
".	c #790300",
"+	c #910100",
"@	c #AC0001",
"#	c #9C0700",
"$	c #B50000",
"%	c #A4040C",
"&	c #B90000",
"*	c #930C0A",
"=	c #86120B",
"-	c #A71200",
";	c #9C140E",
">	c #AE1100",
",	c #8F1A0D",
"'	c #B41D00",
")	c #9D2413",
"!	c #942924",
"~	c #C22600",
"{	c #AE2A18",
"]	c #C32424",
"^	c #D72324",
"/	c #D12528",
"(	c #A83433",
"_	c #D03301",
":	c #AE3E27",
"<	c #A4433F",
"[	c #B24521",
"}	c #D63A3A",
"|	c #DF3E00",
"1	c #BB4528",
"2	c #C35323",
"3	c #B45354",
"4	c #AE5942",
"5	c #EF4D00",
"6	c #BA554E",
"7	c #C1594B",
"8	c #CF5C22",
"9	c #B95D5B",
"0	c #9D6F63",
"a	c #BD6B6B",
"b	c #C47573",
"c	c #AA7E75",
"d	c #CF7566",
"e	c #998688",
"f	c #C57D7F",
"g	c #B98784",
"h	c #C78685",
"i	c #E0807E",
"j	c #A59493",
"k	c #CF8D8C",
"l	c #E48E8D",
"m	c #D09697",
"n	c #BB9E9D",
"o	c #D29E9E",
"p	c #C3A6A5",
"q	c #BDB8B6",
"r	c #DFB0AE",
"s	c #E7B9B8",
"t	c #EBBCA9",
"u	c #CCCCCC",
"v	c #E5C5C0",
"w	c #E6CBC9",
"x	c #F1E3E2",
"y	c #ECEEEA",
"  uuuuuuuuuuuuuuuuuuuuuuuuuuuu  ",
" uuuuuuuuuuuuuuuuuuuuuuuuuuuuuu ",
"uuui}^^^^^^^^^^^^^^^^//////}luuu",
"uulsrrrrrrrrrrrrrrrrrrrrrrrrsiuu",
"uu]ooooooooooooooooooooooooor]uu",
"uu&mmmmmmmmmmmmmmmmmmmmmmmmmr%uu",
"uu&kkkkgjekkkkkkkkkkkkejgkkko%uu",
"uu&fhhgqyyjhhhhhhhhhhjyyqhhho%uu",
"uu$fffqyyyyjffffffffjyyyyqffm%uu",
"uu$bbbwyyyyynbbbbbfjyyyyywbbm;uu",
"uu@aaabwyyyyynaaaanyyyyywbaak;uu",
"uu@aaaaawyyyyynaanyyyyywaaaak;uu",
"uu@999999vyyyyyppyyyyyv99999h;uu",
"uu@3333999vyyyyyyyyyyv999339m*uu",
"uu%33333667vyyyyyyyyv6769ba3!*uu",
"uu%(((<67777vyyyyyywdd77(+++**uu",
"uu#*++;;{{{1cyyyyyyc''>-##++**uu",
"uu%*++#->''0yyyyyyyy0''>-#++*,uu",
"uu;*+##-''0yyyyyyyyyy0''--#+*=uu",
"uu;*+#->'0yyyyyttyyyyyc'>-#+*=uu",
"uu;*+#->cyyyyyt55tyyyyyc>-##*=uu",
"uu;;##-cyyyyyt5555tyyyyyg-##;=uu",
"uu*;##gyyyyyt555555tyyyyyg-#;=uu",
"uu*;##yyyyyt|555555|tyyyyy-#;=uu",
"uu*;##:xyyt_||5555||_tyyx:##;=uu",
"uu*;+#-1yt~_|||55|||_~tx1-##;=uu",
"uu,)+#->'~~__||||||__~~'>-#+)=uu",
"uu!:+##-''~~___||___~~''--#+:=uu",
"uu<4::[[2222288888822222[[::4!uu",
"uuu<=.......................!uuu",
" uuuuuuuuuuuuuuuuuuuuuuuuuuuuuu ",
"  uuuuuuuuuuuuuuuuuuuuuuuuuuuu  "};
