/* XPM */
static char * memory_xpm[] = {
"32 32 64 1",
" 	c None",
".	c #373737",
"+	c #383838",
"@	c #3A3A3A",
"#	c #3D3D3D",
"$	c #3F3F3F",
"%	c #424242",
"&	c #444444",
"*	c #474747",
"=	c #4A4A4A",
"-	c #4C4C4C",
";	c #4E4E4E",
">	c #515151",
",	c #545454",
"'	c #565656",
")	c #595959",
"!	c #5B5B5B",
"~	c #5E5E5E",
"{	c #5F5F5F",
"]	c #616161",
"^	c #636363",
"/	c #666666",
"(	c #696969",
"_	c #6B6B6B",
":	c #6D6D6D",
"<	c #707070",
"[	c #727272",
"}	c #767676",
"|	c #787878",
"1	c #7A7A7A",
"2	c #7D7D7D",
"3	c #7F7F7F",
"4	c #818181",
"5	c #848484",
"6	c #878787",
"7	c #898989",
"8	c #8A8A8A",
"9	c #8C8C8C",
"0	c #8F8F8F",
"a	c #919191",
"b	c #949494",
"c	c #969696",
"d	c #999999",
"e	c #9B9B9B",
"f	c #9D9D9D",
"g	c #A1A1A1",
"h	c #A3A3A3",
"i	c #A6A6A6",
"j	c #A8A8A8",
"k	c #ABABAB",
"l	c #AEAEAE",
"m	c #AFAFAF",
"n	c #B2B2B2",
"o	c #B7B7B7",
"p	c #BABABA",
"q	c #BCBCBC",
"r	c #BFBFBF",
"s	c #C2C2C2",
"t	c #C9C9C9",
"u	c #CBCBCB",
"v	c #CCCCCC",
"w	c #CFCFCF",
"x	c #D5D5D5",
"y	c #D9D9D9",
"  vvvvvvvvvvvvvvvvvvvvvvvvvvvv  ",
" vvvvvvvh6vo5ve8v0ht8sn5vvvvvvv ",
"vvvvvvuvpcomfis0on6lfbnfkvvvvvvv",
"vvvvvvv^^]]]]{{~~~!!!!)))'bvvvvv",
"vvvvvv}98888888<<8888888816vvvvv",
"vvvvq7}665555554444444333:2pvvvv",
"vvvha[!;;----====****&&%%*5ahvvv",
"vvvtc!)-----====****&&&%%&{ctvvv",
"vvvuk|)---=====****&&&%%%&6kuvvv",
"vvvg7('-======*****&&%%%%&|7gvvv",
"vvvvm/,=====~7(**}>(&%%%%&/mvvvv",
"vvvmb6>====(3>h/310>%%%%$&gbmvvv",
"vvvo5)>===*d*{7p^eb%%%%$$&^5ovvv",
"vvvvt3;****9a30g=6*%%%%$$%3tvvvv",
"vvvqd8-***,^_~'^,(!{,&^$$%hdqvvv",
"vvvk4{=***})5{4c922<2>5*#%_4kvvv",
"vvvvs}=*&&(;[5^|[;{||(5*#%}svvvv",
"vvvjb4*&&&&)[/]]:=)$$$###%dbjvvv",
"vvvr6)*&&&)|0||~<9=$$####%]6rvvv",
"vvvvo}*%%%%'<]{|=($$#####%3ovvvv",
"vvvga:&%%%((8<::_:[}>###@$2agvvv",
"vvvuf~&%%%<8400_}1'}###@@$~fuvvv",
"vvvtg2&$$$=,->>%>=!=#@@@@$0gtvvv",
"vvvg6(&$$$_5{16:7/}#@@@@+$|6gvvv",
"vvvvp(&$##/6(48[7(1@@@+++$/pvvvv",
"vvvpd9%#########@@#@@++++$jdpvvv",
"vvvm4{%#######@@@@@++++..#(4mvvv",
"vvvvv2%###@@@@@@@+++++...$2vvvvv",
"vvvvv6=*****************&*6vvvvv",
"vvvvvvmlwdlyfnucsubynjxflmvuvvvv",
" vvvvvvt9nt0gt8qn5te8t9ittuvvvv ",
"  vvvvvvvvvvvvvvvvvvvvvvvvvvvv  "};
