/* XPM */
static char * mmc_xpm[] = {
"32 32 32 1",
" 	c None",
".	c #040975",
"+	c #001B7F",
"@	c #001F8F",
"#	c #0E256A",
"$	c #012BA8",
"%	c #003197",
"&	c #503248",
"*	c #2D378A",
"=	c #0B49D9",
"-	c #004BEB",
";	c #70473B",
">	c #3655AD",
",	c #8B512C",
"'	c #5060A3",
")	c #6F6E9E",
"!	c #B56C1D",
"~	c #788BC0",
"{	c #638DF6",
"]	c #9898B0",
"^	c #96A3CF",
"/	c #83A5F5",
"(	c #FC9B04",
"_	c #A7BFF5",
":	c #FFC369",
"<	c #C9CBC8",
"[	c #BDCCED",
"}	c #CDD6E9",
"|	c #D9DBD8",
"1	c #E6E8E5",
"2	c #FFE7C3",
"3	c #FCFEFB",
"        {                       ",
"      =/_/{{                    ",
"      ---=/__{{                 ",
"      =-----={/_/{              ",
"      =$+@$-----{/_/{           ",
"      $@%%%+@$=----{/}[         ",
"      ~@%%%%%%+@$=---/}         ",
"      ]@++>%@+%%%++@=-[[        ",
"      ]@+*3}}}~%%%%%%+$}[       ",
"       ++.~3'+~~~~%%%%+{}}      ",
"       +)}'>3}++%~)~%%+=_#      ",
"       +*^3333^**+~^^>+$~#      ",
"      %+...*^[>[333333+$~#      ",
"      %+.......^}33333+%~#      ",
"      %@(!;#.....+>''+.%>       ",
"      %@(((((,&........%_'      ",
"      %.332:((((!&.....%~#      ",
"      %.333332:((((!;+.%~#      ",
"      %.3<1333332:((((&%~#      ",
"      %.331<<|333332:(,%~#      ",
"      %.3<1333|<<33333~%~#      ",
"      %.331<<|333|<<13~%~#      ",
"      %.1<|131<<<33313~%~#      ",
"      %.||<<<<133|<<13~%~#      ",
"      %%*)<|||<<<13313)%~#      ",
"      %%%%.*)<|||<<<|1)%~#      ",
"        %%%%%+%)]|||<1)%~#      ",
"           %%%%%++']||)%~#      ",
"               %%%%%+*+%~#      ",
"                  %%%%%%~#      ",
"                    %%%%~       ",
"                                "};
