/* XPM */
static char * mmc_xpm[] = {
"32 32 64 1",
" 	c None",
".	c #2A3F76",
"+	c #E11808",
"@	c #2D4678",
"#	c #304B88",
"$	c #275180",
"%	c #365280",
"&	c #305490",
"*	c #38548B",
"=	c #3A5889",
"-	c #375B98",
";	c #415998",
">	c #405B93",
",	c #E7362F",
"'	c #5B5D5A",
")	c #3C6198",
"!	c #42669E",
"~	c #4566A4",
"{	c #3C6AA0",
"]	c #4B689A",
"^	c #486D9F",
"/	c #4A6CA4",
"(	c #4773AB",
"_	c #3F76AC",
":	c #4E73A5",
"<	c #5378AA",
"[	c #4D7CAD",
"}	c #587EB2",
"|	c #5280B2",
"1	c #5A86B7",
"2	c #5A8BBD",
"3	c #628AB7",
"4	c #6191C3",
"5	c #969895",
"6	c #7A9CC5",
"7	c #7FA0C8",
"8	c #7CA4D3",
"9	c #89A5C8",
"0	c #EC918C",
"a	c #86A9D4",
"b	c #91ACCD",
"c	c #88AEDC",
"d	c #ACAEAB",
"e	c #94B2D6",
"f	c #92B3DC",
"g	c #9BB3D1",
"h	c #A7B9D0",
"i	c #C7BFB8",
"j	c #B6C2D0",
"k	c #BDC6CE",
"l	c #BCCBDF",
"m	c #C6CBCE",
"n	c #CCCCCC",
"o	c #CCD1D4",
"p	c #C6D4E6",
"q	c #D5D5D2",
"r	c #F3D5D3",
"s	c #D8E3EF",
"t	c #E5E7E3",
"u	c #DCE9EA",
"v	c #D8EDEC",
"w	c #E8EAE7",
"x	c #F8FAF7",
"y	c #FDFFFC",
"  nnnnnnnnnnnnnnnnnnnnnnnnnnnn  ",
" nnnfffffcfccccaaa8888esnnnnnnn ",
"nnnn4221111|||||<<[<::(<ennnnnnn",
"nnnn433313111||||[<<<<:::8nnnnnn",
"nnnn43313111|||}[<<<<:::^:7nnnnn",
"nnnn4131____({{{{{{{)))!^^(nnnnn",
"nnnn411[yyyyyyyyyyyyyyyy)^/nnnnn",
"nnnn221(yyyyyyyyyyyyy0yy-]/nnnnn",
"nnnnnd1(yyyyyyyyyyyyr+ry=]/nnnnn",
"nnnnwq|(yyyyyyyyyyyy,+,y-//nnnnn",
"nnnnny_(ytttttttttttuvtt-5nnnnnn",
"nnnnni}(yttttttttttttttt)nnnnnnn",
"nnnnd'2(yxxtxtwxtttttttt-}}nnnnn",
"nnnnnd1(ywxwxxtxtttttttt&]!nnnnn",
"nnnnnd1(yttttttttttttttt&)!nnnnn",
"nnnn4}<(xttttttttttttttt&)>nnnnn",
"nnnn|<<{xtttttttttttttko&))nnnnn",
"nnnn}<<!xtttttttttttkkjq&)>nnnnn",
"nnnn}<:{xtttttttttkkkmhe*>>nnnnn",
"nnnn<::!xtttttttmjkmh79g*>-nnnnn",
"nnnn<::{xtttttkjokb799bg**-nnnnn",
"nnnn<::)xtttjjqj7679779g&*-nnnnn",
"nnnn(::)xtjkqh7byyhlyyyh#*-nnnnn",
"nnnn(^^)mmoh677pyg6yp7yp#*>nnnnn",
"nnnn(^^)qb667766yygy7pye#*-nnnnn",
"nnnn(^^!666777pyyesyysbg#*-nnnnn",
"nnnn(^])766777666976799g#*>nnnnn",
"nnnn(]!)6aaaaaaabbeeeegb**-nnnnn",
"nnnn(]!!=%%%%@@@@@@@..@@**-nnnnn",
"nnnn/!]!!$$$$$$$$$$$$$$&**-nnnnn",
" nnn////~~~~~>%%%*--;------nnnn ",
"  nnn555555555nnn555555555innn  "};
