/* XPM */
static char * reboot_xpm[] = {
"32 32 64 1",
" 	c None",
".	c #D92500",
"+	c #E63C08",
"@	c #E54407",
"#	c #D64B2F",
"$	c #E75211",
"%	c #E95A04",
"&	c #ED6D0B",
"*	c #E4754A",
"=	c #F07D0C",
"-	c #E97D3B",
";	c #E08A0D",
">	c #F28B04",
",	c #E5940B",
"'	c #E6A000",
")	c #E89F20",
"!	c #F39F00",
"~	c #E7A603",
"{	c #E8AD00",
"]	c #E3A664",
"^	c #EBAC22",
"/	c #D9AC7D",
"(	c #EAAD63",
"_	c #BEBC56",
":	c #EDB515",
"<	c #EBB900",
"[	c #BAB6B1",
"}	c #E9B06B",
"|	c #EBB259",
"1	c #D1B693",
"2	c #ECBB1E",
"3	c #EBBF00",
"4	c #C6BF87",
"5	c #EDB676",
"6	c #ECBA53",
"7	c #DEBF4E",
"8	c #E9C400",
"9	c #FABB33",
"0	c #ECBE4A",
"a	c #EDC227",
"b	c #EFB97F",
"c	c #EEC144",
"d	c #E9C81D",
"e	c #FCC12D",
"f	c #EECB00",
"g	c #ECC357",
"h	c #E0C193",
"i	c #EFBF8A",
"j	c #DBD209",
"k	c #D2C89D",
"l	c #E6C987",
"m	c #F2C595",
"n	c #EFD600",
"o	c #CCCCCC",
"p	c #F0CA9E",
"q	c #DFCFB6",
"r	c #EFD380",
"s	c #EDD29A",
"t	c #F0D974",
"u	c #F2E700",
"v	c #F6D7AF",
"w	c #EAE0CA",
"x	c #F7E4C3",
"y	c #E6E8E5",
"  oooooooooooooooooooooooooooo  ",
" oooooooooooooooooooooooooooooo ",
"ooosceeeeeeeeeee999999999996vooo",
"oosxvvvvvvvvvvvvvvvvvvvvvvvvxioo",
"oo9pppppppppppppppppppppppppv)oo",
"oo!mm1[[[[[[[[[1mmmmmmmmmmmmv>oo",
"oo!imoyyyyyyyyyyiiiiiiiiiiiip>oo",
"oo!55oyyyyyyyyyyiiiiiiiiiiiip>oo",
"oo!555yyyyyyyyyybbbbbbbbbbbbp=oo",
"oo>5555/yyyyyyyy555555555555m=oo",
"oo>555/oyyyyyyyy}}}}}}}}}}}}m&oo",
"oo>(((oyyyybwyyy((((((((]]]]i&oo",
"oo>((/yyyys|wyyy|||||(([o[]]i&oo",
"oo=((1yyyy|6wyyy6666||hyyy1(m&oo",
"oo=((oyyys60syyy000066syyyq|;%oo",
"oo&))wyyyrcccrr0cccgggryyyq;;%oo",
"oo&,,wyyy022aaaaaaa<:{0yyyq,,%oo",
"oo&,'wyyy78888888888887yyyk',%oo",
"oo&)'wyyy438ffffffff834yyyl''$oo",
"oo&'~gyyyodfnnnnnnnffdyyyyg~~$oo",
"oo&'{:yyyyknnnuuuunnnkyyyy:{~@oo",
"oo%~{:tyyyy4juuuuuuj4yyyyt:{{@oo",
"oo%~{:3yyyyy[_juuj_oyyyyy3:{{+oo",
"oo$~{:<dyyyyyyo[ooyyyyyyd3:{{+oo",
"oo$~{:<3dyyyyyyyyyyyyyyd3<:{{+oo",
"oo$~{{:<8ftyyyyyyyyyyyf83<:{{+oo",
"oo$'~{:<338ftyyyyyytnf83<:{~{@oo",
"oo$)'~{{:<338fffffff833<:{{~^+oo",
"oo*-))^^^{::::22222:::^{^^^)-#oo",
"ooo#........................#ooo",
" oooooooooooooooooooooooooooooo ",
"  oooooooooooooooooooooooooooo  "};
