/* XPM */
static char * reboot_xpm[] = {
"32 32 32 1",
" 	c None",
".	c #DB2A00",
"+	c #E65010",
"@	c #ED6D0B",
"#	c #F18510",
"$	c #E69817",
"%	c #F39F00",
"&	c #E8AA00",
"*	c #EAA662",
"=	c #EAB057",
"-	c #EBBA08",
";	c #EBB16E",
">	c #F5B62D",
",	c #F2BA1F",
"'	c #EBC20A",
")	c #C2BDB6",
"!	c #EEB87E",
"~	c #D3BE97",
"{	c #EDBF4E",
"]	c #EECC00",
"^	c #EFBF8A",
"/	c #E1CD65",
"(	c #EFD600",
"_	c #E3CB93",
":	c #F1C799",
"<	c #ECE100",
"[	c #F3D786",
"}	c #F6D7AF",
"|	c #DCDDD9",
"1	c #EADEC7",
"2	c #F0E7C3",
"3	c #E9EBE7",
"                                ",
"                                ",
"   [{,,,,,,,>>>>>>>>>>>>>>>{_   ",
"  [2}}}}}}}}}}}}}}}}}}}}}}}}2;  ",
"  >}::::::::::::::::::::::::}$  ",
"  %::~)))))))))~::::::::::::}#  ",
"  %^^)||||||||||^^^^^^^^^^^^}#  ",
"  %!^1|||||33333^^^^^^^^^^^^:#  ",
"  %!!:1||3333333!!!!!!!!!!!!:#  ",
"  %;;;;~33333333;;;;;;;;;;;;:#  ",
"  #;;;^|33333333;;;;;;;;;;;;:@  ",
"  #***)3333!1333;;;;;;;;;***^@  ",
"  #**!|333_=1333======;)));*^@  ",
"  #*=~3331==1333======:33|~*:@  ",
"  #==1333_{{_332{{{{{{_33|1=$+  ",
"  @$$1333[{{{[[{{{{{{{[33|1$$+  ",
"  @$$1333{,,--------,&{33|1$$+  ",
"  @$$2333{--''''''''-,{33|~$$+  ",
"  @$&_333_'']]]]]]]'''_33|_$$+  ",
"  @&&{333|'](((((((]]'|33|{&&+  ",
"  @&&,333|~(((<<<<(((~3331,&&+  ",
"  +&&,/33||~(<<<<<<(~3333/,&&+  ",
"  +&&,'23|||)/(<<(/)33332',&&.  ",
"  +&&,-'1|||||)))|333331'',&&.  ",
"  +&&,-']2||||||||33332]'-,&&.  ",
"  +&&&,-'][3|||||3333[]''-,&&.  ",
"  +&&&,-''']/233332/]]''-,&&&+  ",
"  +$$&&&,-''']]]]]]]'''-,&&&>.  ",
"  +*$$>>>>,,,,,,,,,,,,>>>>>$@.  ",
"   ..........................   ",
"                                ",
"                                "};
