/* XPM */
static char * rescan_xpm[] = {
"32 32 29 1",
" 	c None",
".	c #2E902C",
"+	c #469E42",
"@	c #55AC4F",
"#	c #6BB95B",
"$	c #7BC36C",
"%	c #80C871",
"&	c #67B760",
"*	c #50A74A",
"=	c #228724",
"-	c #1D8420",
";	c #479C39",
">	c #67B558",
",	c #6DBE66",
"'	c #8ACA74",
")	c #95D57E",
"!	c #A0DB8B",
"~	c #8FCF79",
"{	c #4BA346",
"]	c #62B053",
"^	c #19811E",
"/	c #2A8D29",
"(	c #5FAD50",
"_	c #74BC66",
":	c #6EBC5E",
"<	c #78BE61",
"[	c #53AA4D",
"}	c #369733",
"|	c #4A9F3C",
"                                ",
"                                ",
"                                ",
"           .+@#$%%&*      =     ",
"         -.;*@>,$')!~+   {]^    ",
"        ^-===/.;]$'~))] *%#^    ",
"       ^^^^^^^^^^/($%%'_%$_-    ",
"      ^^^       ^^^.>:_<_#>=    ",
"     ^^           ^^=[]]]]@.    ",
"     ^              /+{**{{.    ",
"                   =.}}}}}}.^   ",
"                  ^^-==////=^   ",
"                 ^^^^^^^^^^^^   ",
"                ^^^^^^^^^^^^^   ",
"                      ^^^^^^^   ",
"                            ^   ",
"   -/                           ",
"   =*[**|;.                     ",
"   ^+*(>:$%%_(-^                ",
"   ^}{[]>_$%%.^                 ",
"   ^.;*[]>::.^                  ",
"   ^=};*[]]/^                   ",
"    -.};{*@}              ^     ",
"    ^/.};+*[+=           ^^     ",
"    ^-/./}|**[}/       }=^      ",
"    ^^--^-};+**[*++|{*(/^       ",
"    ^^^^ ^^=};|{**[[[}-^        ",
"    ^^^   ^^^=/.}}./^^^         ",
"     ^      ^^^^^^^^^           ",
"                                ",
"                                ",
"                                "};
