/* XPM */
static char * rescan_xpm[] = {
"32 32 64 1",
" 	c None",
".	c #103809",
"+	c #114009",
"@	c #014D00",
"#	c #104909",
"$	c #0C5406",
"%	c #055800",
"&	c #006400",
"*	c #25571A",
"=	c #145E10",
"-	c #007600",
";	c #266E26",
">	c #1D7515",
",	c #306D2D",
"'	c #2E711D",
")	c #008B00",
"!	c #3E7338",
"~	c #18870E",
"{	c #327D33",
"]	c #24841C",
"^	c #2A8811",
"/	c #089401",
"(	c #547F4F",
"_	c #3E883D",
":	c #249516",
"<	c #179D09",
"[	c #3A903A",
"}	c #30972D",
"|	c #4B924A",
"1	c #5B8E58",
"2	c #32A723",
"3	c #35A913",
"4	c #27AE12",
"5	c #6C9269",
"6	c #549C55",
"7	c #5E9D5D",
"8	c #4AA932",
"9	c #44AC41",
"0	c #51AA4C",
"a	c #3DB32E",
"b	c #2EBB18",
"c	c #56AA56",
"d	c #58AC48",
"e	c #18C710",
"f	c #62A960",
"g	c #07D100",
"h	c #83A87D",
"i	c #6EB46C",
"j	c #74B371",
"k	c #7CB17E",
"l	c #00E306",
"m	c #20D90E",
"n	c #94AB93",
"o	c #83B784",
"p	c #79BE7B",
"q	c #84BE83",
"r	c #91B98F",
"s	c #81C784",
"t	c #A8BFA6",
"u	c #B2C0B3",
"v	c #8BD08D",
"w	c #BCC3BA",
"x	c #A0D6A1",
"y	c #CCCCCC",
"  yyyyyyyyyyyyyyyyyyyyyyyyyyyy  ",
" yyyyyyyyyyr6|7krk77ryyyyyyyyyy ",
"yyyyyyyyy7>|qxxxxxpj|>7wyyyyyuwy",
"yyyyyyyk-6xvvvvvvvvvvq_>hyyyfc0y",
"yyyyyy7[qssssssssssssssi]6yf}q/y",
"yyyyy__pppppppppppppppppp|]}ps)y",
"yyyy1{jiiiiiiiijjiiiiiiiijjjip)y",
"yyyh;jiiiiii7{;@@=;|fiiiiiiiij:y",
"yyy=7fffff7;@@@@@@@%=[ffffffff:y",
"yy1,66666|$@@##+++#%&&]ccccccf:y",
"yy$|6666|$@@#5uyyu5#&--~000ccc:y",
"yn*|||||;@@,wyyyyyyu*-))89d00c:y",
"y1,____{@@$wyyyyyyy($<<<29990[^y",
"y,,{{{{$@#5yyyyyyy($bebbaa8}}>^y",
"y*;{{{{@@#uyyyyyyu=glmeb4<)--&]y",
"y*;;;;;%%#yyyyyyyt*.+++###@$='ty",
"y#$===&&&#yyyyyyyyyyyyyyyyyyyyyy",
"y*#@@%&--$uyyyyyyyyyyyyyyyyyyyyy",
"y,#@%&--~&1yyyyyyyyyyywuwyyyyyyy",
"y(#%&--)))=uyyyyyyyyynttuuuwyyyy",
"yn#&&-))//~>wyyyyyyynhorrttuuwyy",
"yy#&-~))///)>hwyyyn(|cfjqorttwyy",
"yy(=-))////<2~]'''>888dcijornyyy",
"yyy*-)////<<33333433289dcijrnyyy",
"yyyh=)///<<3334bbbb442890cjhyyyy",
"yyyy(>//<<3334beeeebb428dc1uyyyy",
"yyyyy!>/<<334beegggeeb428_nyyyyy",
"yyyyyy1>2334begmllmgeb4~>5yyyyyy",
"yyyyyyyn'-24bemllllmgb],wyyyyyyy",
"yyyyyyyyy5'])4emlg4)^=nyyyyyyyyy",
" yyyyyyyyyyn5!,=$=!5nyyyyyyyyyy ",
"  yyyyyyyyyyyyyyyyyyyyyyyyyyyy  "};
