/* XPM */
static char * shutdown_xpm[] = {
"32 32 64 1",
" 	c None",
".	c #790300",
"+	c #920504",
"@	c #AD0000",
"#	c #9C0700",
"$	c #A4040C",
"%	c #B80000",
"&	c #86120B",
"*	c #A80E01",
"=	c #9C140E",
"-	c #8F1A0D",
";	c #9E2214",
">	c #B72000",
",	c #942924",
"'	c #C62601",
")	c #C32424",
"!	c #D72324",
"~	c #A6312E",
"{	c #D12528",
"]	c #D23200",
"^	c #AF3F24",
"/	c #9F423D",
"(	c #D63A3A",
"_	c #DF4001",
":	c #BC4826",
"<	c #CD451F",
"[	c #B35152",
"}	c #C45223",
"|	c #B05840",
"1	c #C45541",
"2	c #CF5C22",
"3	c #BF6156",
"4	c #C5604F",
"5	c #BE615D",
"6	c #B3674A",
"7	c #BF6E6D",
"8	c #CE725E",
"9	c #B07E66",
"0	c #C67B70",
"a	c #E5774E",
"b	c #C37D7E",
"c	c #AE8B8A",
"d	c #BE8888",
"e	c #E0807E",
"f	c #CE887B",
"g	c #CA8887",
"h	c #CF8E8C",
"i	c #E58E73",
"j	c #E48E8D",
"k	c #D09697",
"l	c #BFA2A1",
"m	c #D39F9E",
"n	c #CBA5A5",
"o	c #B2ADAB",
"p	c #E3A693",
"q	c #EDA98A",
"r	c #E0B2AF",
"s	c #D3BEBE",
"t	c #DCBCBA",
"u	c #CFC2C3",
"v	c #CCCCCC",
"w	c #DED1D2",
"x	c #E5D1D3",
"y	c #E7E9E6",
"  vvvvvvvvvvvvvvvvvvvvvvvvvvvv  ",
" vvvvvvvvvvvvvvvvvvvvvvvvvvvvvv ",
"vvve(!!!!!!!!!!!!!!!!{{{{{{(jvvv",
"vvjrrrrrrrrrrrrrrrrrrrrrrrrrrevv",
"vv)mmmmmmmmmmmmmmmmmmmmmmmmmr)vv",
"vv%kkkkkkkkkkkkkkkkkkkkkkkkkr*vv",
"vv%hhhhhdcchhhhcchhhhccdhhhhm*vv",
"vv%ggggduyylgglyylgglyyudgggm$vv",
"vv%bbbbsyyywbbyyyybbwyyysbbbk$vv",
"vv@777lyyyyt77yyyy77tyyyyc77k=vv",
"vv@777wyyyx777yyyy777xyyyv77h=vv",
"vv@77dyyyy7555yyyy555byyyyd7h=vv",
"vv@55lyyyt5555yyyy5555tyyyl5g=vv",
"vv@[[syyyh3334yyyy4333hyyys[k=vv",
"vv*[[wyyy04444yyyy44440yyyw[,+vv",
"vv*~~xyyy01111yyyy4484fyyys+++vv",
"vv*++nyyyf:::<yyyy<<>>0yyyn+++vv",
"vv$=+byyys>>']pyyp]'>>syyyb++-vv",
"vv==+~yyyy|']]]aa]]]'|yyyy~+=&vv",
"vv==+#tyyyy:]______]:yyyyt#+=&vv",
"vv==+#1yyyyy6]____]6yyyyy1##=&vv",
"vv==##*fyyyyyo9669oyyyyyf*##=&vv",
"vv==##*>pyyyyyyyyyyyyyyp>**#;&vv",
"vv=;##*>>iyyyyyyyyyyyyi>>**#;&vv",
"vv=;##*>>'<pyyyyyyyyp<'>>*##;&vv",
"vv=;+#*>>>']]aqqqia_]]'>>*##;&vv",
"vv-;+#**>>']]______]]'>>>*#+;&vv",
"vv,^+##*>>>']]]__]]]'>>>**#+^&vv",
"vv/6^^::}}}}}222222}}}}}::^^|,vv",
"vvv/&.......................,vvv",
" vvvvvvvvvvvvvvvvvvvvvvvvvvvvvv ",
"  vvvvvvvvvvvvvvvvvvvvvvvvvvvv  "};
