/* XPM */
static char * storage_xpm[] = {
"32 32 64 1",
" 	c None",
".	c #1F201E",
"+	c #2A2C29",
"@	c #323331",
"#	c #383A38",
"$	c #1A4474",
"%	c #234D76",
"&	c #4A4C49",
"*	c #2D5276",
"=	c #2C5979",
"-	c #525451",
";	c #33657C",
">	c #5E5D5F",
",	c #676765",
"'	c #526E7D",
")	c #7D6D75",
"!	c #737173",
"~	c #2B88E9",
"{	c #7F817E",
"]	c #398EEB",
"^	c #898B88",
"/	c #4496EB",
"(	c #4D9DEC",
"_	c #949592",
":	c #51AAF0",
"<	c #62A7EF",
"[	c #AA9CA9",
"}	c #9FA19D",
"|	c #79B2F1",
"1	c #AAABA9",
"2	c #62B9F4",
"3	c #B5A7B5",
"4	c #BAB2AB",
"5	c #C7AEBE",
"6	c #6AC7F7",
"7	c #85C3F5",
"8	c #7CC6F6",
"9	c #BCBAC4",
"0	c #BBBCB9",
"a	c #91CAF6",
"b	c #88CEF8",
"c	c #A3CDF6",
"d	c #E1C2D1",
"e	c #CBC9CD",
"f	c #A2D3F8",
"g	c #CCCCCC",
"h	c #9ED9FA",
"i	c #E1CDCF",
"j	c #C8D4E2",
"k	c #D6D7D4",
"l	c #E7D3D1",
"m	c #DDD7E3",
"n	c #BFE0FA",
"o	c #DADDE2",
"p	c #E4DDC9",
"q	c #DDDFDC",
"r	c #E8DDD0",
"s	c #E9E6D0",
"t	c #E7E7E7",
"u	c #D4EBFC",
"v	c #E8EEF7",
"w	c #EEF0ED",
"x	c #F8F8FD",
"y	c #FEFFFC",
"  ggggggggggge999eeegggggggggg  ",
" gggggggggge199mmmieegggggggggg ",
"gggggggggg94pkjmmtxxoegggggggggg",
"ggggggggg94rpkqotxxxxoeggggggggg",
"gggggggge3irppqoxxxxxxeegggggggg",
"gggggggg3ddirssqtxxxxxt9gggggggg",
"gggggggg[dddir}}}}tttom3gggggggg",
"ggggggge>)))),!-&&>!!!!>eggggggg",
"gggtwwwwwwwwwwwwwwwwwwwwwwwwtggg",
"gggw-######################-wggg",
"gggt#&->,,!{{{^^^^{{{!,,>-&#tggg",
"gggt@&='''''''''''''''''';&@tggg",
"gggt@&=fffhhhhhhhhhhhhh66;&@tggg",
"gggq@&=fffffffffvuhhhb666;&@qggg",
"gggq@&*aaaaaaanvxvfb66666;&@qggg",
"gggq+&%777777una7b8222666;&+qggg",
"gggk+&%7nxn7un7772:22u822=&+kggg",
"gggk@-%|xyyyyyyyyyyyyyyn2=-@kggg",
"gggk#>$<cvc|||7n:::::ua:2=-@kggg",
"gggk+&$<<<<<<(/<n<yy:::::=&+kggg",
"gggk.&$/(((/]]//<nyy<((::*&.kggg",
"gggk.&$/]]~~~]]]]/////(((%&.kggg",
"gggk.&$$$$$$$$$$$$$$$%%%%%&.kggg",
"gggk.&-,,!{^_}1001}_^{!,>-&.kggg",
"gggk#......................#kggg",
"gggkkkkkkkkkkkkkkkkkkkkkkkkkkggg",
"ggggggggggggg000011ggggggggggggg",
"gggggggggg011g001_1}10gggggggggg",
"ggggggggg1qqqqggggqqqq1ggggggggg",
"ggggggggg0qqqqkkkkqqqq0ggggggggg",
" gggggggg}}kkqqqqqqkg}}gggggggg ",
"  ggggggggg1_^_11_^_1ggggggggg  "};
