/* XPM */
static char * system_xpm[] = {
"32 32 32 1",
" 	c None",
".	c #181917",
"+	c #212320",
"@	c #383937",
"#	c #515351",
"$	c #5D6060",
"%	c #926A22",
"&	c #6C6E6D",
"*	c #AB7512",
"=	c #787A77",
"-	c #957949",
";	c #91866E",
">	c #878885",
",	c #CF9501",
"'	c #969895",
")	c #C0963A",
"!	c #A4A6A3",
"~	c #BDA474",
"{	c #E9AC00",
"]	c #E4B700",
"^	c #B4B5B2",
"/	c #EFC400",
"(	c #BEC0BD",
"_	c #C7C9C6",
":	c #CCCCCC",
"<	c #DECE89",
"[	c #F8D81F",
"}	c #F9E000",
"|	c #F9E65B",
"1	c #F8E09C",
"2	c #E1E4E1",
"3	c #F0F2EF",
"  ::::::::::::::::::::__((__::  ",
" _((_:::::::::::::::_(^^:::(_:: ",
"_^32(_:::::::::::::_(!:22232^_::",
"(232_!_::::::::::::_'_233^>&^_::",
"(!22_&(_:::::::::::('2332&'^__::",
"_!!^(3&(_:::::::::_^^2332!__::::",
":_!=$:3&(_::::::::_!(:332^_:____",
"::_^>$23&(_:::::::(>(:222!!(^!!_",
":::_('#23&(_::::::^'(2_:2(>^(>'_",
"::::_('$22=(_::::_!^'!>>:_!(!&^_",
":::::_(!$22>(_:::(':$=:@_^!^>>(:",
"::::::_(!&32'(_:_!(3'#:&^'>=$^_:",
":::::::__!&32_((':!('$>>=&&&^_::",
":::::::::_!=3::':>@='=&&>'^(_:::",
"::::::::::_!>3::>@#!=>^^(__:::::",
":::::::::::_!=3::&!=!(_:::::::::",
"::::::::::_('(#2_:>~~__:::::::::",
":::::::::_(!:$@@2_<1,~_:::::::::",
"::::::::_(!:#@@>$<}[{,^_::::::::",
":::::::_(^(#@+>'-{/{/])^__::::::",
"::::::_^^^#@+='>;*{]}}//)(_:::::",
":::::_^(!#@+&!>^^>%,/}}|{)(_::::",
"::::_^('#@.$!>^__(!=,/}|]]*(_:::",
":::_^_'#@.#^>^_:::_^%{/}|/]*(_::",
"::_^:>#@.@^>!_:::::_'*{{/|/]*^_:",
":_^:_>@.@^>!_::::::_(>*]{/[//*^_",
"_^:>&'=+^>'(_:::::::_('*]{]}//,(",
"_^('^>^^''(_:::::::::_('%]]]}/{^",
"(!(^_!('>(_:::::::::::_('%]]//)(",
"_!!^^^'>(_:::::::::::::_(!%,,,!_",
" (=''>>^_:::::::::::::::_(!;;!( ",
"  ^'>!(_:::::::::::::::::__((_  "};
