/* XPM */
static char * system_xpm[] = {
"32 32 32 1",
" 	c None",
".	c #16345E",
"+	c #1B3D6C",
"@	c #214B86",
"#	c #2E4E7E",
"$	c #2E578F",
"%	c #535B62",
"&	c #3B6096",
"*	c #5C5E5B",
"=	c #5B5F56",
"-	c #4D688B",
";	c #4C6B97",
">	c #416EA8",
",	c #6B6D6A",
"'	c #5679A5",
")	c #537EB4",
"!	c #5C7DA4",
"~	c #787A77",
"{	c #848683",
"]	c #7096C2",
"^	c #90928E",
"/	c #9A9B97",
"(	c #91ABCD",
"_	c #A7A9A6",
":	c #B0B2AE",
"<	c #BCBEBA",
"[	c #C7C9C5",
"}	c #D1D3D0",
"|	c #DBDDDA",
"1	c #E5E8E4",
"2	c #EDF0EC",
"3	c #F7FAF6",
"                                ",
"      ^<^                       ",
"      ^22/                  *   ",
" ^^    :22{               *:|*  ",
" /:    {23^             *{}}<*  ",
" /3^   /33_             *32|*   ",
" ^2}{{_223_            *,[3^    ",
" {1|1121211{          =,_,**    ",
"  _1}}|21<}[         *,_,=      ",
"   /|121[::}:       =,:,*       ",
"      {^|[::1:     *,:,*        ",
"        {}[<}2:   *,:,*         ",
"         ~}||12: *,<,*          ",
"          ~}2112{,<,*           ",
"           ~}2|/~[,*            ",
"            ~}/~[,~*            ",
"             ,~},{:/            ",
"          @@%~},{_:|_           ",
"         @)({},*/[[<|_,         ",
"         &(>)~% ,[}<<|_,        ",
"        $()))!.  ,<}<:}}~       ",
"      @;())''#.   ,<}::}1<_^~   ",
"     @](>))-+      ,[[<|32111~  ",
"    &(]>));+        ,||31||1}1, ",
"   @(]>));+          {3211/~|1~ ",
"  @]]>))&#.          ~31[,  ~3/ ",
" @)]>))$#.           ~22,    [/ ",
" $]>))$#.            *11^    ,, ",
" @')>$+.              {11*      ",
"  #-#+.                ~1{      ",
"   ..                   **      ",
"                                "};
