/* XPM */
static char * back_xpm[] = {
"32 32 32 1",
" 	c None",
".	c #00438E",
"+	c #004993",
"@	c #134A90",
"#	c #075096",
"$	c #035799",
"%	c #0062A4",
"&	c #185C9E",
"*	c #33619D",
"=	c #0F6EAB",
"-	c #1D79B0",
";	c #268ABD",
">	c #4086B1",
",	c #3A98CA",
"'	c #4998BF",
")	c #6396BB",
"!	c #579FC1",
"~	c #51AAD5",
"{	c #61A9CB",
"]	c #72AFCC",
"^	c #6CB4D6",
"/	c #5CBAE4",
"(	c #79BAD7",
"_	c #87C4DE",
":	c #95CEE7",
"<	c #A2CCDF",
"[	c #B6DEF0",
"}	c #BEDEE5",
"|	c #C9E9ED",
"1	c #D8EDF7",
"2	c #F5FAFD",
"3	c #FEFFFC",
"                                ",
"            ////////            ",
"          /([[1111[:/~          ",
"        /_11[[[<<<<[[[(~        ",
"      ~/[[[<::::::::_:[:~,      ",
"     ~([[::::::_______(_:~,     ",
"    ,^[<:_______(((((((((:~;    ",
"    ~[:____(((((]]]]]]]]{^(;    ",
"   ,::(((((((]]!))]]{{{{{{^^-   ",
"   {:((]]]]]]{']21{{!!!!!!!{;   ",
"  ;_(]]^{{{{{><23}!!!!!'!'''!=  ",
"  ,_{{{{{{!)>}333_>;--===--;'-  ",
" =!^!!!!!!>)13332-====%%%%%%==% ",
" ={{!!!!'>]23333<$$$$$$%%%%&%=$ ",
" ={''''>><333333333333}$$$$$&%$ ",
" %!'>>--[22222222222222$$$$$$%$ ",
" %-%%$$=<||||||||||||||$$####$# ",
" $=%$$$$$]||||||||||||<######## ",
" $=&$$$$$#>}}}}}]############## ",
" #&&#######=<}}}<#######+@+++++ ",
"  #&########$]<<<-++++++++++++  ",
"  #####+@@++++)<<)+++++++++..+  ",
"   @@++++++++++=<]+..+.......   ",
"   +@@@@@@@++@++&$+..+.......   ",
"    +@##@##@@@@@@@@@@@@@@@@.    ",
"    .+####################..    ",
"     .+#$$$$$$$$$$$$$$$$#+.     ",
"      ..$&&&&&&&&&&&&&&$..      ",
"        .#&**********&@.        ",
"          .@$******#@.          ",
"            ........            ",
"                                "};
