/* XPM */
static char * cf_xpm[] = {
"32 32 32 1",
" 	c None",
".	c #040602",
"+	c #161815",
"@	c #282926",
"#	c #363634",
"$	c #483825",
"%	c #563F2B",
"&	c #623D1D",
"*	c #434441",
"=	c #515250",
"-	c #7A502E",
";	c #5D5F5C",
">	c #9C5617",
",	c #B75903",
"'	c #6D6F6C",
")	c #C95F00",
"!	c #D96800",
"~	c #C96D17",
"{	c #7E807D",
"]	c #A97A4F",
"^	c #EA7000",
"/	c #A28365",
"(	c #94938F",
"_	c #C4996F",
":	c #A2A4A1",
"<	c #B0B2AF",
"[	c #C9B3A0",
"}	c #BDBEBB",
"|	c #C7C9C6",
"1	c #D4D6D3",
"2	c #E5E7E3",
"3	c #F9FBF8",
"                     #          ",
"                   #**@         ",
"                 #**#@@@        ",
"                **#@$>%@        ",
"              ***#%,^^,@+       ",
"            ***#$>^^!)>&+       ",
"          ****#>^^!!),>>@+      ",
"         *=*#-!^^!))),>/'+      ",
"       ==**%~^^!)))),/}|}+.     ",
"     ===**>^^!))))!]}1|::;+     ",
"   ===**>^^!!)))!~}11<:|<:+.    ",
"  ==**-!^^!),)!~[21}:<=(|:=.    ",
"=;=**,^^!))))!_22|<}';}11::..   ",
"==**,^!))))!]231<}1(=1};||:*.   ",
" ==*!))))!~|33}<<':1#'=}11:(.   ",
" ==*>,)!~[332<1'{<{1(=1111:}@.  ",
"  =*$)!_3333<2:{22211@|1|:<|#.  ",
"  **#]22<<13<2'<222*2{<<<|1'... ",
"   **;3}11}21|('221=2}:|1}*...  ",
"   **#|||1}22<2#{(=<<|11'...    ",
"    *#'3112221|2(:<}22(@..      ",
"    #*@1332|22<1}}22<#..        ",
"     *@'33<}}21|22|;...         ",
"     ##@21}}<1222{+..           ",
"      @@{3<|<22(@..             ",
"       @@22|2}*+.               ",
"       @+{1:=++.                ",
"       @@++++.                  ",
"       @#+++                    ",
"        ++                      ",
"                                ",
"                                "};
