/* XPM */
static char * cf_xpm[] = {
"32 32 32 1",
" 	c None",
".	c #313330",
"+	c #3A3B38",
"@	c #1E447A",
"#	c #2B4465",
"$	c #444543",
"%	c #515250",
"&	c #225BB1",
"*	c #115FD4",
"=	c #0064FF",
"-	c #5E5E5B",
";	c #4E6080",
">	c #566171",
",	c #0D6DFB",
"'	c #6D6F6C",
")	c #2B82FF",
"!	c #7C7E7C",
"~	c #5096FF",
"{	c #90928F",
"]	c #999B98",
"^	c #6BA8FF",
"/	c #A1A3A0",
"(	c #A9ABA8",
"_	c #89B7FF",
":	c #BCBEBB",
"<	c #A3C7FF",
"[	c #C9CBC8",
"}	c #BFD9FF",
"|	c #D7D9D6",
"1	c #E9EBE8",
"2	c #E0EEFF",
"3	c #FCFEFB",
"                                ",
"    [[[                         ",
"   ||[:(:((                     ",
"  ..%]||::/(/(                  ",
"  .+#+.${:1:(/((]               ",
"  .@=,&#++$!:|:((]/](           ",
"  .@_))==*@$$+'(||//]//{        ",
"  .@^___))==*@%%$-/[|(/]]/]     ",
"  .@^~=}~}}))==*@>%%-{:|:]]/1   ",
"  .@^_~}_^__<^_~==,&>--%{:||+   ",
"  .>^,~~^^___^)_)}~==,&;--!'.   ",
"  .'332_,,)^__=^,~^=_,,==>!'.   ",
"  .'333332_)=^_^,<^=<_~~);!'.   ",
"  .'333333333_)==)_~}~__^;!'.   ",
"  .'333333333333<~,^=}^__;!'.   ",
"  .'1[|333333333333<~=)~^;!'.   ",
"  .'333|[|333333333333}^=;!'.   ",
"  .'1[|333|[|333333333333!!'.   ",
"  .'111[[|333|[[333333333!!'.   ",
"  .'|:|111[[|333|[[333333!!'.   ",
"  .'|1[::|111[[|333|[[133!!'.   ",
"  .'|||||[::|111[[[133|[3!!'.   ",
"  .+!(||||||[::|111[[[133!!'.   ",
"   .+.+'(|||||||::[111[:1!!'.   ",
"     +++++'/|||||||::[111!!'.   ",
"        +$$$$'][||||||::|!!'.   ",
"            $$$$'][|||||1!!'.   ",
"               %%%%-{:|||!!'.   ",
"                  %%%%-{:'!'.   ",
"                      ----!'    ",
"                         -!     ",
"                                "};
