/* XPM */
static char * hd_xpm[] = {
"32 32 32 1",
" 	c None",
".	c #525351",
"+	c #555754",
"@	c #5B5D5A",
"#	c #656664",
"$	c #7F817E",
"%	c #888A87",
"&	c #8D8F8C",
"*	c #919390",
"=	c #969895",
"-	c #9EA09C",
";	c #A2A4A1",
">	c #A8AAA7",
",	c #ACAEAA",
"'	c #B1B3B0",
")	c #B6B8B4",
"!	c #B9BBB8",
"~	c #BFC1BE",
"{	c #C4C6C3",
"]	c #CED0CD",
"^	c #D3D5D2",
"/	c #D5D8D4",
"(	c #D8DAD7",
"_	c #DBDDDA",
":	c #DEE0DD",
"<	c #E1E3E0",
"[	c #E3E5E2",
"}	c #E7E9E6",
"|	c #EBEDEA",
"1	c #F0F2EF",
"2	c #F4F6F3",
"3	c #F9FBF8",
"                                ",
"                                ",
"                                ",
"                                ",
"      .+@@@@@@@@@@@@@@@@+.      ",
"     .,333333333333222211*      ",
"     .2|:<<<<::::____(//[:.     ",
"     =3[}<[}}[[:::::__/:_|$     ",
"    .:|:<}}}}[<:::<<::_//<{.    ",
"    #3:[}}}[<:::<<<:::__//}@    ",
"   .!1:[[[<<:::<[<:::___(/[;    ",
"   +1[[[<::::<[[<<::____(((/.   ",
"   &2_}<::::<[[<:::______:^[$   ",
"  ./}_}[::<[[<<:::______::^_!.  ",
"  #2___}}<<<<:::_______}[^^^:#  ",
"  )|_(__<||}<::____:<}}_/^^/_-  ",
" .}:2}(((_:[}||||}|}<_//^^<2(^+ ",
" .2_________________((//////^}+ ",
" .1::::::::_______(((//////^^]. ",
" .|!!!)))'''',,,>>>>>;;;;----!. ",
" .}!!$%*=-;>>>,,>>={={*~*~&~-). ",
" .}!!%%*=-;>>>,,>>={={*~&~&~-'. ",
" .}!!&&*=-;>>>,>>>={={*~&~&~-'. ",
" .[!)))!',,>,>>>>>={*{*~&~&~-,. ",
" .{:::__//^^]]]]{{{~~!!!)''',*. ",
"  ............................  ",
"                                ",
"                                ",
"                                ",
"                                ",
"                                ",
"                                "};
