/* XPM */
static char * info_xpm[] = {
"32 32 32 1",
" 	c None",
".	c #035AB3",
"+	c #0062C0",
"@	c #066BCA",
"#	c #006DD3",
"$	c #1E6BBB",
"%	c #0073D8",
"&	c #0B70D7",
"*	c #0972CA",
"=	c #0079DF",
"-	c #007EEA",
";	c #147CDC",
">	c #0081EE",
",	c #257DCF",
"'	c #1A82DC",
")	c #1886EC",
"!	c #288ADD",
"~	c #1190EF",
"{	c #308BD8",
"]	c #418BD0",
"^	c #1C98F1",
"/	c #4695DD",
"(	c #4F97D9",
"_	c #3A9CED",
":	c #589CD8",
"<	c #649DD3",
"[	c #67A4DC",
"}	c #73A9DB",
"|	c #85B2DE",
"1	c #9EC1E3",
"2	c #D0E1F3",
"3	c #FDFFFC",
"                                ",
"                                ",
"            ........            ",
"          ....$]]$....          ",
"        ..$<|111111|:*++        ",
"       ..]|||||}}|||||]++       ",
"      .$}||||<2332}||||}$+      ",
"     .+<}}}}}133331}}}}}[*+     ",
"    .+:[[[[[:333333([[[[[:@@    ",
"    +]:::::::133332:::::::/@    ",
"   +*((((((((:3333<((((((((*@   ",
"   +,]]]]]]]/]]||]]////////!%   ",
"  ++]]]]]]{{{{{{{{{{{{{{{{{{%%  ",
"  @@{{{{{{!,,,,,,,!!!!!!!!!!;%  ",
"  ++@,,,,,,*333333*'''''''';%&  ",
"  @@@@@**,**333333*;;;';;;%%==  ",
"  @@@###@@@@@@3333@=;===%=====  ",
"  @#%#%#%%%%%@3333@%%=========  ",
"  ##%%%%%%&%%#3333#=========-=  ",
"  %%%%&%%%%%%#3333%======---->  ",
"   %%%%%%%===#3333%==----->>>   ",
"   &%%=======%3333%--->>>>>>>   ",
"    =========&3333%>>>>>>>>>    ",
"    ====-=--%#3333#%->>>>>>>    ",
"     =-----%33333333=>>>>>>     ",
"      ->>>>=33333333;>>>>>      ",
"       >>>>)'!!///!!~)>>>       ",
"        >>>)~^^___^~)>>>        ",
"          >>>>>>))>>>>          ",
"            >>>>>>>>            ",
"                                ",
"                                "};
