/* XPM */
static char * logo_xpm[] = {
"32 32 32 1",
" 	c None",
".	c #787878",
"+	c #838383",
"@	c #8B8B8B",
"#	c #8F8F8F",
"$	c #929292",
"%	c #969696",
"&	c #9A9A9A",
"*	c #9E9E9E",
"=	c #A1A1A1",
"-	c #A7A7A7",
";	c #AAAAAA",
">	c #AEAEAE",
",	c #B3B3B3",
"'	c #B6B6B6",
")	c #BABABA",
"!	c #BCBCBC",
"~	c #BFBFBF",
"{	c #C4C4C4",
"]	c #C8C8C8",
"^	c #CCCCCC",
"/	c #D0D0D0",
"(	c #D4D4D4",
"_	c #D7D7D7",
":	c #DCDCDC",
"<	c #DFDFDF",
"[	c #E3E3E3",
"}	c #E8E8E8",
"|	c #ECECEC",
"1	c #EFEFEF",
"2	c #F4F4F4",
"3	c #F8F8F8",
"                                ",
"             -(<<(>             ",
"             ,2222'             ",
"             ~3333~             ",
"      '}*   {}2222}{   ;}^      ",
"     ~11}{/}21111111[/^|11(     ",
"    ,||||1111111111111|||}}~    ",
"    _}}}|||||||::|||||}}}[[(    ",
"    *<[[}|||([^__][/}}}}[<_*    ",
"     -<<[}[[:<<::::_<<[[<_-     ",
"     -:<<<(<<<<:::::_^:[:(-     ",
"     ^::<^_<<<<::::___/:(^{     ",
"    %__:(/(_<]'..'{___/^^]^%    ",
" ,;,](__//(({#    @{_(^]]]/^'>' ",
" ']^//(_^//(*      *_/{{]^///^' ",
" )]]^//_^///@      @/]~!////^]) ",
" '{]]^/_^^//+      +]{){((/^]]) ",
" ;~{]]^//]^/&      &~!{/(/^]]{> ",
" *,){]]^_]^^{#    #)~{]_/^]{)'* ",
"    &{{]_{]^^{;--;{^]]]_^]{&    ",
"     ){]]({]]]]]{{^/(^(^]]~     ",
"     ={]]/^{~!!~{^(((:_^]]-     ",
"     %{{{{])')~]///(_<<(^]&     ",
"    $)!!!~{]_^(//_([:::_/]{%    ",
"    {{{]]^//(((::_______(^]]    ",
"    ;]]^^///(((_______(((/]>    ",
"     ,]^^'!/((((((((/~)//^'     ",
"      ,^=   ,/(___/,   =/;      ",
"             ,____,             ",
"             ;____>             ",
"             =^__^=             ",
"                                "};
