/* XPM */
static char * memory_xpm[] = {
"32 32 32 1",
" 	c None",
".	c #5E2B0D",
"+	c #723400",
"@	c #573835",
"#	c #3F4267",
"$	c #474657",
"%	c #8F4E02",
"&	c #686874",
"*	c #686989",
"=	c #896845",
"-	c #A0681D",
";	c #B56F00",
">	c #8D7D70",
",	c #81819B",
"'	c #DE8E00",
")	c #B09576",
"!	c #9A9AB0",
"~	c #C89847",
"{	c #FAA400",
"]	c #AEADBE",
"^	c #E5AD27",
"/	c #BCBDCD",
"(	c #FDBF14",
"_	c #CACCD8",
":	c #FED14E",
"<	c #FBD773",
"[	c #DBDBE4",
"}	c #FDE99A",
"|	c #EBE9EE",
"1	c #FAF3D2",
"2	c #FFF9C7",
"3	c #FCFDFC",
"                                ",
"                                ",
"                                ",
"                                ",
"                                ",
"          ]!/!                  ",
"        ]!|333>~                ",
"      //3333333]>               ",
"   _][33333333|||,%             ",
"  __33333333333[[3&             ",
"  _33|||||||||||__3>)           ",
"  /333|||||[|||[///[_&;         ",
"  );133|[[[[[[[//////|&-        ",
" {<3~)||[_____]]]]]]]][>#       ",
" {113~>|||//_]]]]]]!!]!/)&'     ",
" {3<23.|[[|]/]!!!!][/!!!![#;    ",
" {3}(+)')__|]]!!!!_#*|!,!3,3%   ",
" '1}(+<3}=_/|]!,,,|###|_33&:;   ",
"(1}}'%2}31./]|!,,,,|**!||3&<;   ",
"(<}:'%2}<1+!]!|!**,_[!3[|3&}^+  ",
" ':{% 2}(+>;;!!|]_!!3[_[|3$-^^. ",
"  '- '2}(.(33-,,3*,!!]/_|3# %+  ",
"    (2<}(.:}33-*[*,!!]/|!$      ",
"    ((}:{ :2:3~@[*,,!_]$$       ",
"     '({; :2:;=*[#*]]$$         ",
"      '-  :2:%*/[*]$$           ",
"         :}}:% $_$$             ",
"         {}:(%  $               ",
"          {(;                   ",
"           ;                    ",
"                                ",
"                                "};
