/* XPM */
static char * mmc_xpm[] = {
"32 32 32 1",
" 	c None",
".	c #0E1388",
"+	c #1B1862",
"@	c #1D1C84",
"#	c #383290",
"$	c #36339F",
"%	c #7023AD",
"&	c #6C36B0",
"*	c #753FAB",
"=	c #4E4DB1",
"-	c #5B49B4",
";	c #5352A9",
">	c #5A5CBA",
",	c #6161B9",
"'	c #6461B3",
")	c #865FBA",
"!	c #6E6CBD",
"~	c #7A77C3",
"{	c #8783C8",
"]	c #959296",
"^	c #9792D3",
"/	c #9B97CD",
"(	c #9CA273",
"_	c #A8AB5D",
":	c #A8A6DD",
"<	c #B3AFD8",
"[	c #CDCBE3",
"}	c #DAE23A",
"|	c #DEDDE4",
"1	c #ECF50A",
"2	c #E7E9E6",
"3	c #F5F7F4",
"                                ",
"                                ",
"                {{              ",
"              ^{~!!~!!          ",
"            ^^{,,,,>>'          ",
"           ^^!,,,,>>>>;         ",
"         :^{,,,,,,>>>=;         ",
"        :^!,,,{//!>>>=;         ",
"      ::{',,~,{~<^>>>=;         ",
"    ::^!',,{^,~,:~>>>=;=        ",
"   ::~'',,{/,,<^<>>>====#       ",
"    :!',,'[~:</<{>>>=====       ",
"    :{',,,</!~/>>>>======#      ",
"     ^',,,,,{^>>>>====&&-$      ",
"     ^~,,,,{{>>>>>==&%%%*-#     ",
"      ^!,,,>>>>>>=-%%%&*)!$     ",
"      ^{,,>>>>>>=&%%&**/|[$+    ",
"      ^1(,>>>>>-%%%&*)[222~@    ",
"      {}1>>>>>&%%&**<22222/$+   ",
"       ]1]>>-%%%&*{|222222<$@   ",
"       {}_>=%&&*)[3222222|,$.   ",
"        ~,>&%**^23322222|!.@    ",
"         '>&*)[33333222<$@      ",
"         !>-:33333332|!@+       ",
"          >>[3333333:$@         ",
"          ,=:33333|,$+          ",
"           =,3333/$#            ",
"           ==![<>$+             ",
"           =$==$#               ",
"            ==#                 ",
"                                ",
"                                "};
