/* XPM */
static char * memory_xpm[] = {
"32 32 32 1",
" 	c None",
".	c #1E2224",
"+	c #292D2F",
"@	c #34383A",
"#	c #373B3D",
"$	c #3B3F41",
"%	c #424341",
"&	c #404547",
"*	c #454744",
"=	c #484A47",
"-	c #484D4F",
";	c #4C4E4B",
">	c #4D5358",
",	c #515350",
"'	c #595B58",
")	c #5B6268",
"!	c #616260",
"~	c #696B68",
"{	c #6A7177",
"]	c #717370",
"^	c #787A77",
"/	c #767D83",
"(	c #808380",
"_	c #7D858B",
":	c #898B88",
"<	c #868E94",
"[	c #919390",
"}	c #979EA5",
"|	c #9D9F9C",
"1	c #A4ABB1",
"2	c #B5BABD",
"3	c #CED3D7",
"                                ",
"         )  { {) /  _  {        ",
"        2< 1} 2< 2{[} 1}        ",
"       '!!!!!!!'''''''''''      ",
"      ,::::::::]]::::::::^      ",
"     -]((((((((((((((((((~-     ",
"    <{';;;;;;====******%%&_<    ",
"     #';;;;;====******%%%*$     ",
"     !';;;=====*******%&$*{     ",
"    _)';======*******&%%$&{_    ",
"     +,=====':~**^,~*%&$%&+     ",
"    <_,====~(,|!(^:,%&%%$&}<    ",
"    )>,===*|*!:2!|[%%%$$%&>)    ",
"      ;****:[(:|=:*%%$%$$&      ",
"    __;***,!~''!,~'!,*!$$&|_    ",
"    {>-***^'(!([:^^]^-(&$&){    ",
"     .=***~;](!^]-!^/~(*$&.     ",
"    </*****'{!!!~='$%$$$$&}<    ",
"    )&***%'^:^^']:-$$$$$$&>)    ",
"     -*%%%&']!!^=~$$$$$$$$!     ",
"    <{&%%%~~:]~~~~]^-$$$#$/<    ",
"     @&$$%]:([[~^^'^$$$##$@     ",
"    /{&$$$-,-,,&,-'-$####$_/    ",
"    /)&$$$~(!^:{:~]$####@${/    ",
"     .&%$$!:~(:]:~/###@@@$.     ",
"    <<&$$$$$$$$$##$##@@@@$1<    ",
"    {>&$$$$$$$#####@@@@@@$){    ",
"      &$$$#######@@@@@@@@$      ",
"      =****&&&&&&&**&&&*&&      ",
"        3/ 3[}3{23 31 3<        ",
"        _  /  _  { {) /         ",
"                                "};
