/* XPM */
static char * storage_xpm[] = {
"32 32 32 1",
" 	c None",
".	c #525351",
"+	c #555754",
"@	c #5A5C59",
"#	c #5E5F5D",
"$	c #666865",
"%	c #717370",
"&	c #7A7C79",
"*	c #7F817E",
"=	c #838582",
"-	c #878986",
";	c #8C8E8B",
">	c #91928F",
",	c #959794",
"'	c #9A9C99",
")	c #9FA19E",
"!	c #A4A6A2",
"~	c #A8AAA7",
"{	c #ACAEAB",
"]	c #B1B3B0",
"^	c #B6B8B5",
"/	c #BABCB9",
"(	c #C4C6C3",
"_	c #CDCFCC",
":	c #D4D6D3",
"<	c #D8DAD7",
"[	c #DDDFDC",
"}	c #E3E5E1",
"|	c #E8EAE7",
"1	c #EFF1EE",
"2	c #F2F4F0",
"3	c #F8FAF7",
"                                ",
"                                ",
"                                ",
"                                ",
"      ....................      ",
"     .{3333222111|||}[[[<;      ",
"     .1/!!!!))'',,>>;;--)(.     ",
"     >1!!!!!)'',,>>>;;-==(%     ",
"    .:_!!!!))'',,>>;;--=*~~.    ",
"    @2{!!!))'',,>>;;--==*;(+    ",
"    {[!!!!)'',,,>>;;-==**&];    ",
"   .[/!!!))'',,>>;;--=**&&,].   ",
"   %|!!!!)'',,>>;;--==**&&&^$   ",
"  .(_!!!)''',,>>;;-==**&&&&)'   ",
"  +|]!!))'',,>>;;--=**&&&&&-{.  ",
"  >_$$$$$$$$$$$$$$$$$$$$$$$$'&  ",
" .((~{{{{{{!!!!!!!!)''''''',!). ",
" .1[<<<<<<<<<<<<<<<<<::::::::[. ",
" .322222222222222222211111111|. ",
" .|//^^^^^]]]{{{~~~~~!!!!))))^. ",
" .|//>########@@@@++++++++~))]. ",
" .|//!;;-----====*****&&&&]))]. ",
" .|/^/[[<<<<<<<::::_______/)){. ",
" .|/^^^^]]]{{{{~~~~!!!!)));!){. ",
" .}/^^^]]]]{{{~~~~!!!!!)))>_)~. ",
" .([[[[<<:::____((((///^^]]]{>. ",
"  ............................  ",
"                                ",
"                                ",
"                                ",
"                                ",
"                                "};
